<svg xmlns="http://www.w3.org/2000/svg" width="800" height="1200" viewBox="0 0 800 1200">
  <rect width="800" height="1200" fill="#FAF4E9"/>
  <ellipse cx="400" cy="1044" rx="224.00000000000003" ry="21.599999999999998" fill="#E5D9C4"/>
  <g transform="translate(400 624) scale(2.727272727272727)" fill="#B9A98C">
    <path d="M -26 -160
             C -29 -130, -16 -110, -14 -90
             C -22 -50, -46.400000000000006 30, -58 110
             C -31.900000000000002 124, 31.900000000000002 124, 58 110
             C 46.400000000000006 30, 22 -50, 14 -90
             C 16 -110, 29 -130, 26 -160
             C 10.4 -170, -10.4 -170, -26 -160 Z"/>
    <path d="M 7 -100 C 29 -30, 38.28 40, 34.8 106 L 22.04 112 C 26.1 40, 16.8 -40, 1.4000000000000001 -96 Z" opacity="0.35" fill="#fff"/>
    <line x1="-18.2" y1="-163" x2="-10.4" y2="-192" stroke="#B9A98C" stroke-width="3.5"/>
    <line x1="18.2" y1="-163" x2="10.4" y2="-192" stroke="#B9A98C" stroke-width="3.5"/>
    <path d="M -10.4 -192 Q 0 -212 10.4 -192" stroke="#B9A98C" stroke-width="4" fill="none"/>
    <line x1="0" y1="-207" x2="0" y2="-222" stroke="#B9A98C" stroke-width="3.5"/>
    <circle cx="0" cy="-228" r="6" fill="none" stroke="#B9A98C" stroke-width="3.5"/>
  </g><text x="786" y="1186" text-anchor="end" font-family="Helvetica, Arial, sans-serif" font-size="19" fill="#221D16" opacity="0.35">sample</text></svg>
