<svg xmlns="http://www.w3.org/2000/svg" width="800" height="1200" viewBox="0 0 800 1200">
  <rect width="800" height="1200" fill="#FAF4E9"/>
  <ellipse cx="400" cy="1044" rx="224.00000000000003" ry="21.599999999999998" fill="#E5D9C4"/>
  <g transform="translate(400 624) scale(2.727272727272727)" fill="#B9A98C">
    <path d="M -32 -160
             C -35 -130, -22 -110, -20 -90
             C -28 -50, -41.6 30, -52 110
             C -28.6 124, 28.6 124, 52 110
             C 41.6 30, 28 -50, 20 -90
             C 22 -110, 35 -130, 32 -160
             C 12.8 -170, -12.8 -170, -32 -160 Z"/>
    <path d="M 10 -100 C 26 -30, 34.32 40, 31.2 106 L 19.76 112 C 23.400000000000002 40, 24 -40, 2 -96 Z" opacity="0.35" fill="#fff"/>
    <line x1="-22.4" y1="-163" x2="-12.8" y2="-192" stroke="#B9A98C" stroke-width="3.5"/>
    <line x1="22.4" y1="-163" x2="12.8" y2="-192" stroke="#B9A98C" stroke-width="3.5"/>
    <path d="M -12.8 -192 Q 0 -212 12.8 -192" stroke="#B9A98C" stroke-width="4" fill="none"/>
    <line x1="0" y1="-207" x2="0" y2="-222" stroke="#B9A98C" stroke-width="3.5"/>
    <circle cx="0" cy="-228" r="6" fill="none" stroke="#B9A98C" stroke-width="3.5"/>
  </g><text x="786" y="1186" text-anchor="end" font-family="Helvetica, Arial, sans-serif" font-size="19" fill="#221D16" opacity="0.35">sample</text></svg>
