<svg xmlns="http://www.w3.org/2000/svg" width="900" height="1200" viewBox="0 0 900 1200">
  <defs>
    <linearGradient id="sky" x1="0" y1="0" x2="0" y2="1">
      <stop offset="0" stop-color="#FBDC9B"/>
      <stop offset="0.55" stop-color="#F29A76"/>
      <stop offset="1" stop-color="#E75A7C"/>
    </linearGradient>
    <linearGradient id="sea" x1="0" y1="0" x2="0" y2="1">
      <stop offset="0" stop-color="#D77A6E"/>
      <stop offset="1" stop-color="#7A4460"/>
    </linearGradient>
  </defs>
  <rect width="900" height="744" fill="url(#sky)"/>
  <circle cx="450" cy="672" r="108" fill="#FFF3D6" opacity="0.95"/>
  <rect y="744" width="900" height="456" fill="url(#sea)"/>
  <rect y="744" width="900" height="9.6" fill="#FFE9BF" opacity="0.7"/>
  <ellipse cx="450" cy="804" rx="72" ry="7.2" fill="#FFE9BF" opacity="0.5"/>
  <ellipse cx="450" cy="864" rx="117" ry="8.4" fill="#FFE9BF" opacity="0.35"/>
  <ellipse cx="108" cy="216" rx="81" ry="16.8" fill="#FFF3D6" opacity="0.45"/>
  <ellipse cx="738" cy="312" rx="108" ry="19.2" fill="#FFF3D6" opacity="0.35"/>
  <g transform="translate(450 1044) scale(-1.5 1.5)" fill="#3A2334" opacity="1">
    <circle cx="0" cy="-150" r="24"/>
    <path d="M -4 -126 C -14 -122, -18 -110, -19 -95 L -14 -60 C -30 -20, -52 60, -66 96 C -30 112, 30 112, 66 96 C 52 60, 30 -20, 14 -60 L 19 -95 C 18 -110, 14 -122, 4 -126 Z"/>
    <path d="M 16 -112 C 44 -96, 52 -40, 44 30 C 40 60, 34 80, 28 92 L 20 88 C 30 40, 34 -30, 12 -100 Z" opacity="0.35"/>
  </g><text x="886" y="1186" text-anchor="end" font-family="Helvetica, Arial, sans-serif" font-size="21" fill="#221D16" opacity="0.35">sample</text></svg>
