<svg xmlns="http://www.w3.org/2000/svg" width="900" height="1200" viewBox="0 0 900 1200">
  <defs>
    <linearGradient id="hall" x1="0" y1="0" x2="0" y2="1">
      <stop offset="0" stop-color="#2E241B"/>
      <stop offset="1" stop-color="#5C4630"/>
    </linearGradient>
    <linearGradient id="floor" x1="0" y1="0" x2="0" y2="1">
      <stop offset="0" stop-color="#6E5335"/>
      <stop offset="1" stop-color="#3A2C1E"/>
    </linearGradient>
  </defs>
  <rect width="900" height="888" fill="url(#hall)"/>
  <rect x="45" width="40.5" height="888" fill="#241C13"/>
  <rect x="814.5" width="40.5" height="888" fill="#241C13"/>
  <path d="M 252.00000000000003 120 q 198 144 396 0" stroke="#E9C87A" stroke-width="6" fill="none" opacity="0.9"/>
  <circle cx="450" cy="120" r="14.4" fill="#F3DFA8"/>
  <line x1="306" y1="156" x2="306" y2="216" stroke="#E9C87A" stroke-width="4.8" opacity="0.9"/><circle cx="306" cy="216" r="8.4" fill="#F3DFA8"/>
  <line x1="378" y1="186" x2="378" y2="270" stroke="#E9C87A" stroke-width="4.8" opacity="0.9"/><circle cx="378" cy="270" r="8.4" fill="#F3DFA8"/>
  <line x1="450" y1="195.6" x2="450" y2="291.6" stroke="#E9C87A" stroke-width="4.8" opacity="0.9"/><circle cx="450" cy="291.6" r="8.4" fill="#F3DFA8"/>
  <line x1="522" y1="186" x2="522" y2="270" stroke="#E9C87A" stroke-width="4.8" opacity="0.9"/><circle cx="522" cy="270" r="8.4" fill="#F3DFA8"/>
  <line x1="594" y1="156" x2="594" y2="216" stroke="#E9C87A" stroke-width="4.8" opacity="0.9"/><circle cx="594" cy="216" r="8.4" fill="#F3DFA8"/>
  <rect y="888" width="900" height="312" fill="url(#floor)"/>
  <ellipse cx="450" cy="984" rx="270" ry="36" fill="#E9C87A" opacity="0.12"/>
  <g transform="translate(450 948) scale(1.5 1.5)" fill="#171009" opacity="1">
    <circle cx="0" cy="-150" r="24"/>
    <path d="M -4 -126 C -14 -122, -18 -110, -19 -95 L -14 -60 C -30 -20, -52 60, -66 96 C -30 112, 30 112, 66 96 C 52 60, 30 -20, 14 -60 L 19 -95 C 18 -110, 14 -122, 4 -126 Z"/>
    <path d="M 16 -112 C 44 -96, 52 -40, 44 30 C 40 60, 34 80, 28 92 L 20 88 C 30 40, 34 -30, 12 -100 Z" opacity="0.35"/>
  </g><text x="886" y="1186" text-anchor="end" font-family="Helvetica, Arial, sans-serif" font-size="21" fill="#221D16" opacity="0.35">sample</text></svg>
