<svg xmlns="http://www.w3.org/2000/svg" width="1200" height="900" viewBox="0 0 1200 900">
  <rect width="1200" height="900" fill="#EFE3D0"/>
  <rect width="1200" height="36" fill="#E2D2B8"/>
  <ellipse cx="864" cy="396" rx="192" ry="252.00000000000003" fill="#F9F3E6" stroke="#C9B48E" stroke-width="7.2"/>
  <g transform="translate(864 540) scale(0.675 0.675)" fill="#4A3B2A" opacity="0.45">
    <circle cx="0" cy="-150" r="24"/>
    <path d="M -4 -126 C -14 -122, -18 -110, -19 -95 L -14 -60 C -30 -20, -52 60, -66 96 C -30 112, 30 112, 66 96 C 52 60, 30 -20, 14 -60 L 19 -95 C 18 -110, 14 -122, 4 -126 Z"/>
    <path d="M 16 -112 C 44 -96, 52 -40, 44 30 C 40 60, 34 80, 28 92 L 20 88 C 30 40, 34 -30, 12 -100 Z" opacity="0.35"/>
  </g>
  <path d="M 72 0 q 60 450 0 900 L 0 900 L 0 0 Z" fill="#D7A7B4"/>
  <path d="M 156 0 q 48 450 0 900" stroke="#C793A2" stroke-width="24" fill="none"/>
  <g transform="translate(504 738) scale(1.2000000000000002 1.2000000000000002)" fill="#4A3B2A" opacity="1">
    <circle cx="0" cy="-150" r="24"/>
    <path d="M -4 -126 C -14 -122, -18 -110, -19 -95 L -14 -60 C -30 -20, -52 60, -66 96 C -30 112, 30 112, 66 96 C 52 60, 30 -20, 14 -60 L 19 -95 C 18 -110, 14 -122, 4 -126 Z"/>
    <path d="M 16 -112 C 44 -96, 52 -40, 44 30 C 40 60, 34 80, 28 92 L 20 88 C 30 40, 34 -30, 12 -100 Z" opacity="0.35"/>
  </g>
  <rect x="36" y="810" width="240" height="49.5" rx="25.2" fill="#221D16" opacity="0.75"/>
  <circle cx="102.00000000000001" cy="834.75" r="10.8" fill="#fff"/>
  <rect x="144" y="826.2" width="108" height="17.099999999999998" rx="8.1" fill="#fff" opacity="0.8"/><text x="1186" y="886" text-anchor="end" font-family="Helvetica, Arial, sans-serif" font-size="29" fill="#221D16" opacity="0.35">sample</text></svg>
